<svg width="64" height="64" viewBox="0 0 64 64" fill="none" xmlns="http://www.w3.org/2000/svg">
<rect width="64" height="64" rx="4" fill="#4C49ED"/>
<path d="M52.5714 42.2857C52.5714 43.9132 52.0888 45.5041 51.1846 46.8573C50.2805 48.2104 48.9953 49.2651 47.4918 49.8879C45.9882 50.5107 44.3337 50.6737 42.7375 50.3562C41.1413 50.0387 39.6751 49.255 38.5243 48.1042C37.3735 46.9534 36.5899 45.4872 36.2724 43.891C35.9549 42.2948 36.1178 40.6404 36.7406 39.1368C37.3634 37.6332 38.4181 36.3481 39.7713 35.4439C41.1244 34.5397 42.7154 34.0571 44.3428 34.0571C46.5252 34.0571 48.6181 34.9241 50.1613 36.4672C51.7044 38.0104 52.5714 40.1034 52.5714 42.2857ZM50.5142 13.4857H15.5428C14.4516 13.4857 13.4052 13.9192 12.6336 14.6908C11.862 15.4623 11.4285 16.5088 11.4285 17.6V46.4C11.4285 47.4912 11.862 48.5377 12.6336 49.3092C13.4052 50.0808 14.4516 50.5143 15.5428 50.5143H35.168C33.0519 48.1692 31.9171 45.101 31.9981 41.9433C32.0791 38.7856 33.3696 35.7796 35.6032 33.5461C37.8367 31.3125 40.8427 30.022 44.0004 29.941C47.1581 29.86 50.2263 30.9948 52.5714 33.1109V23.7714C52.5714 23.2258 52.3547 22.7026 51.9689 22.3168C51.5831 21.931 51.0598 21.7143 50.5142 21.7143H17.6C17.0544 21.7143 16.5311 21.4976 16.1453 21.1118C15.7595 20.726 15.5428 20.2027 15.5428 19.6571C15.5428 19.1116 15.7595 18.5883 16.1453 18.2025C16.5311 17.8167 17.0544 17.6 17.6 17.6H52.5714V15.5429C52.5714 14.9973 52.3547 14.474 51.9689 14.0882C51.5831 13.7025 51.0598 13.4857 50.5142 13.4857Z" fill="white"/>
</svg>
