<svg width="27" height="27" viewBox="0 0 27 27" fill="none" xmlns="http://www.w3.org/2000/svg">
<path d="M24.75 19.125C24.75 20.015 24.4861 20.885 23.9916 21.6251C23.4971 22.3651 22.7943 22.9419 21.9721 23.2825C21.1498 23.6231 20.245 23.7122 19.3721 23.5385C18.4992 23.3649 17.6974 22.9363 17.068 22.307C16.4387 21.6776 16.0101 20.8758 15.8365 20.0029C15.6628 19.13 15.7519 18.2252 16.0925 17.4029C16.4331 16.5807 17.0099 15.8779 17.7499 15.3834C18.49 14.8889 19.36 14.625 20.25 14.625C21.4435 14.625 22.5881 15.0991 23.432 15.943C24.2759 16.7869 24.75 17.9315 24.75 19.125ZM23.625 3.375H4.5C3.90326 3.375 3.33097 3.61205 2.90901 4.03401C2.48705 4.45597 2.25 5.02826 2.25 5.625V21.375C2.25 21.9717 2.48705 22.544 2.90901 22.966C3.33097 23.3879 3.90326 23.625 4.5 23.625H15.2325C14.0753 22.3425 13.4547 20.6646 13.499 18.9377C13.5433 17.2109 14.249 15.567 15.4705 14.3455C16.692 13.124 18.3359 12.4183 20.0627 12.374C21.7896 12.3297 23.4675 12.9503 24.75 14.1075V9C24.75 8.70163 24.6315 8.41548 24.4205 8.2045C24.2095 7.99353 23.9234 7.875 23.625 7.875H5.625C5.32663 7.875 5.04048 7.75647 4.8295 7.54549C4.61853 7.33452 4.5 7.04837 4.5 6.75C4.5 6.45163 4.61853 6.16548 4.8295 5.9545C5.04048 5.74353 5.32663 5.625 5.625 5.625H24.75V4.5C24.75 4.20163 24.6315 3.91548 24.4205 3.7045C24.2095 3.49353 23.9234 3.375 23.625 3.375Z" fill="white"/>
</svg>
