<svg width="156" height="77" viewBox="0 0 156 77" fill="none" xmlns="http://www.w3.org/2000/svg">
<path d="M49.75 44.125C49.75 45.015 49.4861 45.885 48.9916 46.6251C48.4971 47.3651 47.7943 47.9419 46.9721 48.2825C46.1498 48.6231 45.245 48.7122 44.3721 48.5385C43.4992 48.3649 42.6974 47.9363 42.068 47.307C41.4387 46.6776 41.0101 45.8758 40.8365 45.0029C40.6628 44.13 40.7519 43.2252 41.0925 42.4029C41.4331 41.5807 42.0099 40.8779 42.7499 40.3834C43.49 39.8889 44.36 39.625 45.25 39.625C46.4435 39.625 47.5881 40.0991 48.432 40.943C49.2759 41.7869 49.75 42.9315 49.75 44.125ZM48.625 28.375H29.5C28.9033 28.375 28.331 28.6121 27.909 29.034C27.4871 29.456 27.25 30.0283 27.25 30.625V46.375C27.25 46.9717 27.4871 47.544 27.909 47.966C28.331 48.3879 28.9033 48.625 29.5 48.625H40.2325C39.0753 47.3425 38.4547 45.6646 38.499 43.9377C38.5433 42.2109 39.249 40.567 40.4705 39.3455C41.692 38.124 43.3359 37.4183 45.0627 37.374C46.7896 37.3297 48.4675 37.9503 49.75 39.1075V34C49.75 33.7016 49.6315 33.4155 49.4205 33.2045C49.2095 32.9935 48.9234 32.875 48.625 32.875H30.625C30.3266 32.875 30.0405 32.7565 29.8295 32.5455C29.6185 32.3345 29.5 32.0484 29.5 31.75C29.5 31.4516 29.6185 31.1655 29.8295 30.9545C30.0405 30.7435 30.3266 30.625 30.625 30.625H49.75V29.5C49.75 29.2016 49.6315 28.9155 49.4205 28.7045C49.2095 28.4935 48.9234 28.375 48.625 28.375Z" fill="#4C49ED"/>
<path d="M60.365 46.5V31.695H70.76V34.656H64.25V37.659H70.277V40.62H64.25V46.5H60.365ZM72.3982 46.5V35.832H76.1362V46.5H72.3982ZM72.3142 34.32V30.96H76.2412V34.32H72.3142ZM78.448 46.5V38.73C78.448 38.254 78.434 37.771 78.406 37.281C78.378 36.791 78.336 36.308 78.28 35.832H81.892L82.102 37.68H81.871C82.221 37.008 82.718 36.497 83.362 36.147C84.006 35.783 84.734 35.601 85.546 35.601C86.792 35.601 87.723 35.972 88.339 36.714C88.969 37.442 89.284 38.583 89.284 40.137V46.5H85.546V40.305C85.546 39.619 85.427 39.143 85.189 38.877C84.951 38.597 84.608 38.457 84.16 38.457C83.572 38.457 83.096 38.653 82.732 39.045C82.368 39.423 82.186 39.927 82.186 40.557V46.5H78.448ZM95.732 46.731C94.808 46.731 93.996 46.514 93.296 46.08C92.596 45.632 92.043 44.988 91.637 44.148C91.245 43.308 91.049 42.314 91.049 41.166C91.049 40.004 91.245 39.01 91.637 38.184C92.043 37.344 92.596 36.707 93.296 36.273C93.996 35.825 94.808 35.601 95.732 35.601C96.558 35.601 97.3 35.797 97.958 36.189C98.63 36.581 99.071 37.092 99.281 37.722H99.071L99.302 35.832H102.893C102.851 36.308 102.809 36.791 102.767 37.281C102.739 37.771 102.725 38.254 102.725 38.73V46.5H99.029L98.987 44.694H99.239C99.029 45.31 98.588 45.807 97.916 46.185C97.258 46.549 96.53 46.731 95.732 46.731ZM96.929 43.959C97.559 43.959 98.07 43.742 98.462 43.308C98.854 42.86 99.05 42.146 99.05 41.166C99.05 40.186 98.854 39.479 98.462 39.045C98.07 38.597 97.559 38.373 96.929 38.373C96.299 38.373 95.788 38.597 95.396 39.045C95.004 39.479 94.808 40.186 94.808 41.166C94.808 42.146 94.997 42.86 95.375 43.308C95.767 43.742 96.285 43.959 96.929 43.959ZM105.047 51.036V38.73C105.047 38.254 105.033 37.771 105.005 37.281C104.977 36.791 104.935 36.308 104.879 35.832H108.491L108.722 37.722H108.512C108.708 37.092 109.142 36.581 109.814 36.189C110.486 35.797 111.235 35.601 112.061 35.601C112.985 35.601 113.797 35.825 114.497 36.273C115.197 36.707 115.743 37.344 116.135 38.184C116.541 39.01 116.744 40.004 116.744 41.166C116.744 42.314 116.541 43.308 116.135 44.148C115.743 44.988 115.197 45.632 114.497 46.08C113.797 46.514 112.985 46.731 112.061 46.731C111.249 46.731 110.514 46.549 109.856 46.185C109.198 45.807 108.764 45.31 108.554 44.694H108.785V51.036H105.047ZM110.864 43.959C111.508 43.959 112.019 43.742 112.397 43.308C112.789 42.86 112.985 42.146 112.985 41.166C112.985 40.186 112.789 39.479 112.397 39.045C112.019 38.597 111.508 38.373 110.864 38.373C110.234 38.373 109.723 38.597 109.331 39.045C108.939 39.479 108.743 40.186 108.743 41.166C108.743 42.146 108.939 42.86 109.331 43.308C109.723 43.742 110.234 43.959 110.864 43.959ZM118.561 51.036V38.73C118.561 38.254 118.547 37.771 118.519 37.281C118.491 36.791 118.449 36.308 118.393 35.832H122.005L122.236 37.722H122.026C122.222 37.092 122.656 36.581 123.328 36.189C124 35.797 124.749 35.601 125.575 35.601C126.499 35.601 127.311 35.825 128.011 36.273C128.711 36.707 129.257 37.344 129.649 38.184C130.055 39.01 130.258 40.004 130.258 41.166C130.258 42.314 130.055 43.308 129.649 44.148C129.257 44.988 128.711 45.632 128.011 46.08C127.311 46.514 126.499 46.731 125.575 46.731C124.763 46.731 124.028 46.549 123.37 46.185C122.712 45.807 122.278 45.31 122.068 44.694H122.299V51.036H118.561ZM124.378 43.959C125.022 43.959 125.533 43.742 125.911 43.308C126.303 42.86 126.499 42.146 126.499 41.166C126.499 40.186 126.303 39.479 125.911 39.045C125.533 38.597 125.022 38.373 124.378 38.373C123.748 38.373 123.237 38.597 122.845 39.045C122.453 39.479 122.257 40.186 122.257 41.166C122.257 42.146 122.453 42.86 122.845 43.308C123.237 43.742 123.748 43.959 124.378 43.959Z" fill="#4C49ED"/>
</svg>
